PathFileType	4	(X/Y/Z)	Kaydara																																																																																																																									
DataRate	CameraRate	NumFrames	NumMarkers	Units	OrigDataRate	OrigDataStartFrame	OrigNumFrames																																																																																																																					
30	30	6	41	mm	30	16	111																																																																																																																					
Frame#	Time	PAIB_LFHD			PAIB_RFHD			PAIB_LBHD			PAIB_RBHD			PAIB_LFTShould			PAIB_RFTShould			PAIB_LRRShould			PAIB_RRRShould			PAIB_T10			PAIB_STRN			PAIB_TRUN			PAIB_LSHO			PAIB_LUPA			PAIB_LELB			PAIB_LFRM			PAIB_LWRA			PAIB_LWRB			PAIB_LFIN			PAIB_RSHO			PAIB_RUPA			PAIB_RELB			PAIB_RFRM			PAIB_RWRA			PAIB_RWRB			PAIB_RFIN			PAIB_LFWT			PAIB_RFWT			PAIB_LBWT			PAIB_RBWT			PAIB_LTHI			PAIB_LKNE			PAIB_LSHN			PAIB_LANK			PAIB_LHEE			PAIB_LTOE			PAIB_RTHI			PAIB_RKNE			PAIB_RSHN			PAIB_RANK			PAIB_RHEE			PAIB_RTOE		
		X1	Y1	Z1	X2	Y2	Z2	X3	Y3	Z3	X4	Y4	Z4	X5	Y5	Z5	X6	Y6	Z6	X7	Y7	Z7	X8	Y8	Z8	X9	Y9	Z9	X10	Y10	Z10	X11	Y11	Z11	X12	Y12	Z12	X13	Y13	Z13	X14	Y14	Z14	X15	Y15	Z15	X16	Y16	Z16	X17	Y17	Z17	X18	Y18	Z18	X19	Y19	Z19	X20	Y20	Z20	X21	Y21	Z21	X22	Y22	Z22	X23	Y23	Z23	X24	Y24	Z24	X25	Y25	Z25	X26	Y26	Z26	X27	Y27	Z27	X28	Y28	Z28	X29	Y29	Z29	X30	Y30	Z30	X31	Y31	Z31	X32	Y32	Z32	X33	Y33	Z33	X34	Y34	Z34	X35	Y35	Z35	X36	Y36	Z36	X37	Y37	Z37	X38	Y38	Z38	X39	Y39	Z39	X40	Y40	Z40	X41	Y41	Z41
																																																																																																																												
1	0.5	268.58078	1679.69315	-1954.21066	81.31944	1678.50616	-1963.58551	284.66558	1662.98676	-2083.31985	80.90679	1670.40771	-2081.07391	239.92611	1427.6973	-1999.02466	115.67832	1427.78824	-2004.75006	255.12056	1503.22906	-2137.30621	103.34463	1504.19968	-2135.94452	178.46409	1352.60712	-2232.31232	185.03487	1358.94882	-1968.32718	182.02036	1255.76698	-1956.46393	375.95058	1446.55258	-2075.07767	439.67487	1223.40805	-2115.80292	453.73314	1148.03223	-2164.57443	471.22116	1031.74965	-2120.23636	412.30843	923.37379	-2031.84448	450.25772	903.40012	-2097.47406	462.21489	867.91306	-2033.78448	-10.46618	1438.15048	-2068.58978	-85.31309	1282.2583	-2144.42581	-117.68151	1172.26944	-2168.2695	-139.14845	1037.5808	-2132.91428	-80.71867	936.49445	-2035.90164	-149.0655	922.07352	-2081.52863	-140.95873	887.26326	-2016.51443	286.94082	979.05777	-2014.54666	49.54062	981.60873	-2019.33838	225.34298	1008.86032	-2236.73798	82.80391	1020.3289	-2231.09787	268.10297	738.96011	-2209.12323	313.45922	498.60832	-2093.17383	287.53483	306.83975	-2092.92648	281.02972	130.08235	-2197.24442	220.00998	122.30772	-2237.78244	282.72848	75.63686	-2022.20062	18.7193	715.5574	-2190.0618	-0.56602	485.46116	-2070.17212	52.46472	296.25744	-2073.68073	9.03241	112.36609	-2181.92139	67.05595	114.05776	-2224.31107	39.82566	77.09411	-1988.02063
2	0.533	269.08575	1679.59	-1953.62885	81.89496	1678.78174	-1963.1163	284.86429	1661.97586	-2082.13776	81.52613	1670.53116	-2080.56931	239.26992	1427.17041	-1997.23495	116.02696	1427.68402	-2004.00742	255.61453	1503.0751	-2136.64917	103.81983	1504.10721	-2135.18173	178.91804	1352.42935	-2231.50253	185.3467	1358.81104	-1967.62268	182.3333	1255.44739	-1955.64316	376.34415	1446.26831	-2074.34158	440.00931	1223.13667	-2114.78928	454.24026	1147.73964	-2163.49136	471.83548	1031.55319	-2119.16077	412.981	923.08823	-2030.82184	451.08479	903.1179	-2096.40686	462.95441	867.6828	-2032.48978	-10.00316	1438.07541	-2067.93579	-84.92096	1282.23923	-2143.87634	-117.31966	1172.28477	-2167.65854	-138.62608	1037.63336	-2131.78848	-80.14143	936.95023	-2034.61182	-148.41631	922.32574	-2080.00076	-140.30652	887.8595	-2014.78302	287.69789	979.04388	-2013.86017	50.16056	981.13731	-2018.45612	225.63965	1008.797	-2235.87006	83.1429	1020.15381	-2230.09644	268.30187	738.97049	-2208.37204	313.76894	498.47569	-2092.93686	287.78536	306.6993	-2092.78931	281.0651	130.04025	-2197.1788	220.07851	122.37082	-2237.63855	282.72568	75.63931	-2022.17545	18.88675	715.27695	-2188.80386	-0.1845	485.40752	-2069.35822	52.94728	296.12009	-2072.9335	9.2135	112.57863	-2181.76605	67.2295	114.23193	-2224.15726	39.92152	77.08013	-1987.90482
3	0.567	269.58761	1679.31961	-1952.93106	82.59188	1678.89526	-1962.38968	285.959	1662.03079	-2081.88538	82.10077	1670.48416	-2079.9321	239.57373	1426.70181	-1996.26724	116.37243	1427.26242	-2003.15704	255.91444	1502.89642	-2135.86411	104.18944	1503.90503	-2134.28223	179.2375	1352.26761	-2230.69931	185.65714	1358.37051	-1966.91223	182.72385	1255.13733	-1955.103	376.62285	1445.88028	-2073.54218	440.2998	1222.83234	-2114.02512	454.46114	1147.37579	-2162.64664	472.14584	1031.25	-2118.1958	413.49808	922.7845	-2029.70581	451.46053	902.81487	-2095.2861	463.56922	867.51572	-2031.42105	-9.6476	1437.86575	-2067.17239	-84.61461	1282.17651	-2143.28308	-117.07516	1172.21626	-2167.11411	-138.15179	1037.60742	-2130.8696	-79.51715	937.43019	-2033.18222	-147.73431	922.40479	-2078.6969	-139.6131	888.24715	-2013.38516	288.34848	978.7011	-2013.4967	51.01957	980.94719	-2017.4733	225.88825	1008.59261	-2235.30396	83.48584	1019.89128	-2229.23843	268.47744	738.73024	-2207.64923	314.32287	498.26721	-2092.33215	288.25308	306.30379	-2092.62558	281.1581	130.16184	-2196.99783	220.06077	122.45565	-2237.5235	282.7833	75.60815	-2022.17987	19.03921	714.99062	-2187.52335	0.38811	485.09323	-2067.17865	53.29257	295.81249	-2072.23511	9.33863	112.76894	-2181.44485	67.39318	114.41385	-2223.89389	39.96225	76.97124	-1987.73438
4	0.6	270.15057	1679.1922	-1952.18842	83.10514	1678.98575	-1961.46606	285.5019	1660.94696	-2080.36591	82.42796	1670.36957	-2078.95599	240.17727	1426.22665	-1995.66589	117.19942	1426.79169	-2001.79001	256.21632	1502.77466	-2134.7641	104.44422	1503.69476	-2133.17062	179.51218	1352.12997	-2229.63013	186.02535	1357.67212	-1966.21246	183.31038	1254.49478	-1953.84918	376.89766	1445.52307	-2072.5386	440.37098	1222.45438	-2113.28445	454.54323	1147.09457	-2162.00439	472.21077	1030.98305	-2117.4321	413.79864	922.82112	-2028.66486	451.46824	902.63374	-2094.34662	463.78468	867.44644	-2030.58212	-9.19106	1437.3703	-2066.12183	-84.21056	1281.93481	-2142.59888	-116.81776	1172.0182	-2166.51855	-137.74549	1037.4131	-2130.09644	-78.57715	937.35947	-2032.26715	-147.05641	922.20856	-2077.63672	-138.86358	888.23486	-2012.31873	289.16843	978.64212	-2012.93823	51.91179	980.84267	-2017.29935	226.01101	1008.36723	-2234.74335	83.60411	1019.7374	-2228.23517	268.57059	738.32489	-2207.05521	314.86826	498.05183	-2091.54251	288.60966	306.06024	-2092.043	281.21944	130.11543	-2196.8924	220.04576	122.57104	-2237.33917	282.85404	75.56237	-2022.1051	19.41533	714.91615	-2186.5625	0.97709	485.05608	-2065.87158	53.81507	295.66916	-2071.8161	9.60204	112.85711	-2181.3443	67.55528	114.49764	-2223.80768	40.02573	76.94379	-1987.60437
5	0.633	270.3524	1679.07288	-1951.1113	83.40926	1678.74084	-1960.3688	285.7752	1660.86288	-2079.28299	82.72315	1670.13718	-2077.81815	240.34182	1425.57297	-1994.65469	117.10219	1426.11343	-2001.38855	256.57608	1502.61581	-2133.89114	104.72558	1503.4816	-2132.18155	179.86429	1352.07184	-2228.72757	186.28563	1357.02896	-1965.64957	183.601	1253.87207	-1953.36746	377.08927	1445.10986	-2071.63544	440.43579	1222.02866	-2112.53876	454.61323	1146.76102	-2161.45325	472.07882	1030.55534	-2116.73126	413.39607	922.4942	-2027.85736	451.11992	902.33032	-2093.51456	463.41312	867.2731	-2029.65469	-8.70647	1436.86691	-2065.17578	-83.77457	1281.55151	-2141.7601	-116.3992	1171.7292	-2165.81818	-137.28078	1037.07962	-2129.4342	-78.28956	937.19002	-2031.61346	-146.46915	921.95412	-2076.94687	-138.24856	887.97409	-2011.5892	289.67361	978.56194	-2012.47574	52.10147	980.79292	-2015.58289	226.03621	1008.33572	-2234.11942	83.61709	1019.79858	-2227.29507	268.62015	738.17741	-2206.43372	315.08663	497.87514	-2090.9877	288.83547	306.09148	-2091.60248	281.17861	130.00047	-2196.94672	220.00481	122.6889	-2237.23862	282.88189	75.53317	-2022.09839	19.64153	714.98207	-2185.79651	1.32505	484.88129	-2066.33057	54.43334	295.69042	-2071.63422	9.80439	112.88549	-2181.13632	67.65179	114.55095	-2223.76495	40.12344	76.90061	-1987.52014
6	0.667	270.41576	1678.94333	-1950.09583	83.5639	1678.48358	-1959.32327	285.92861	1660.80048	-2078.30872	82.86313	1669.89075	-2076.80237	240.75811	1425.0119	-1993.73901	117.59881	1425.71457	-2000.3508	256.90901	1502.49832	-2132.99301	105.00722	1503.35632	-2131.29135	180.1799	1352.02103	-2227.94846	186.94447	1356.66336	-1964.94629	183.98552	1253.3699	-1953.41965	377.34783	1444.72061	-2070.8844	440.75031	1221.97601	-2112.61093	454.56818	1146.3678	-2160.96756	471.82056	1030.18646	-2116.15646	412.68421	922.36336	-2027.26624	450.59113	902.06291	-2092.8421	462.69287	867.03056	-2028.77121	-8.39868	1436.55151	-2064.41803	-83.26292	1281.23764	-2141.11694	-115.89653	1171.45187	-2165.20187	-136.7369	1036.79321	-2128.94852	-77.69219	936.85982	-2031.27853	-145.94767	921.60133	-2076.54816	-137.66704	887.52357	-2011.23245	290.17372	978.60664	-2011.66138	52.42491	980.81329	-2014.94583	226.19204	1008.32336	-2233.32352	83.74184	1019.79637	-2226.46729	268.75238	738.31512	-2205.81314	315.15282	497.84931	-2090.77972	288.81357	305.93813	-2091.60278	281.13834	130.03815	-2196.91727	220.02956	122.74942	-2237.18353	282.89188	75.51629	-2022.05002	19.71073	714.95567	-2185.01038	1.62726	484.80366	-2065.9938	54.75469	295.49791	-2071.34888	9.92008	113.0288	-2181.15021	67.72166	114.65401	-2223.68927	40.1793	76.88842	-1987.45697
